<svg id="Layer_2" data-name="Layer 2" xmlns="http://www.w3.org/2000/svg" viewBox="0 0 300 300"><defs><style>.cls-1{fill:#fff;stroke:#e5e5e5;stroke-miterlimit:10;}.cls-2{fill:#f77872;}.cls-3{fill:#47b4d6;}</style></defs><rect class="cls-1" x="9.5658" y="10.2233" width="279.2521" height="279.2521" rx="34.379"/><rect class="cls-2" x="146.5" y="47.4767" width="7" height="190.7271"/><rect class="cls-2" x="40.2617" y="235.678" width="219.4766" height="7"/><path class="cls-3" d="M258.05,47.4767l-1.0436.04c-46.5007,1.7909-62.4,33.9031-80.81,71.0855-7.9564,16.07-16.9747,34.2851-29.3454,51.7918-17.43,24.6659-39.6788,38.5464-66.1289,41.254A87.2359,87.2359,0,0,1,45.81,208.297l-.98-.36-3.2411,8.8255.98.36c.4886.18,12.1676,4.396,28.9393,4.396,3.2738,0,6.5792-.1622,9.8254-.4826,20.2281-1.9985,49.346-11.4657,73.1947-45.2163,12.7909-18.101,21.9807-36.6621,30.0931-53.0451,18.4785-37.3217,31.83-64.2865,72.7458-65.8627l1.0447-.04Z"/></svg>